<svg width="16" height="16" viewBox="0 0 16 16" fill="none" xmlns="http://www.w3.org/2000/svg">
<path d="M15.0124 6.26909C14.7287 5.97309 14.4356 5.66764 14.3178 5.38327C14.2087 5.11927 14.2029 4.72873 14.1964 4.31564C14.1862 3.63345 14.1745 2.86109 13.6567 2.34327C13.1389 1.82545 12.3636 1.81382 11.6844 1.80364C11.2713 1.79709 10.8844 1.79127 10.6167 1.68218C10.3324 1.56436 10.0269 1.27127 9.73091 0.987636C9.248 0.525091 8.70109 0 8 0C7.29891 0 6.752 0.525091 6.26909 0.987636C5.97309 1.27127 5.66764 1.56436 5.38327 1.68218C5.11927 1.79127 4.72873 1.79709 4.31564 1.80364C3.63345 1.81382 2.86109 1.82545 2.34327 2.34327C1.82545 2.86109 1.81382 3.63636 1.80364 4.31564C1.79709 4.72873 1.79127 5.11564 1.68218 5.38327C1.56436 5.66764 1.27127 5.97309 0.987636 6.26909C0.525091 6.752 0 7.29891 0 8C0 8.70109 0.525091 9.248 0.987636 9.73091C1.27127 10.0269 1.56436 10.3324 1.68218 10.6167C1.79127 10.8807 1.79709 11.2713 1.80364 11.6844C1.81382 12.3665 1.82545 13.1389 2.34327 13.6567C2.86109 14.1745 3.63636 14.1862 4.31564 14.1964C4.72873 14.2029 5.11564 14.2087 5.38327 14.3178C5.66764 14.4356 5.97309 14.7287 6.26909 15.0124C6.752 15.4749 7.29891 16 8 16C8.70109 16 9.248 15.4749 9.73091 15.0124C10.0269 14.7287 10.3324 14.4356 10.6167 14.3178C10.8807 14.2087 11.2713 14.2029 11.6844 14.1964C12.3665 14.1862 13.1389 14.1745 13.6567 13.6567C14.1745 13.1389 14.1862 12.3665 14.1964 11.6844C14.2029 11.2713 14.2087 10.8844 14.3178 10.6167C14.4356 10.3324 14.7287 10.0269 15.0124 9.73091C15.4749 9.248 16 8.70109 16 8C16 7.29891 15.4749 6.752 15.0124 6.26909ZM14.3825 9.12727C14.0429 9.48073 13.6916 9.84727 13.5098 10.2836C13.3367 10.7011 13.3295 11.1942 13.3222 11.6713C13.3142 12.2124 13.3055 12.7724 13.0385 13.04C12.7716 13.3076 12.2109 13.3156 11.6698 13.3236C11.1927 13.3309 10.6996 13.3382 10.2822 13.5113C9.84582 13.6916 9.48218 14.0429 9.12509 14.384C8.74327 14.7476 8.34836 15.1287 7.99855 15.1287C7.64873 15.1287 7.25382 14.7498 6.87127 14.384C6.51782 14.0444 6.15127 13.6931 5.71491 13.5113C5.29745 13.3382 4.80436 13.3309 4.32727 13.3236C3.78618 13.3156 3.22618 13.3069 2.95855 13.04C2.69091 12.7731 2.68291 12.2124 2.67491 11.6713C2.66764 11.1942 2.66036 10.7011 2.48727 10.2836C2.30691 9.84727 1.95564 9.48364 1.61455 9.12655C1.25164 8.74473 0.872727 8.34982 0.872727 8C0.872727 7.65018 1.25164 7.25527 1.61745 6.87273C1.95709 6.51927 2.30836 6.15273 2.49018 5.71636C2.66327 5.29891 2.67055 4.80582 2.67782 4.32873C2.68582 3.78764 2.69455 3.22764 2.96145 2.96C3.22836 2.69236 3.78909 2.68436 4.33018 2.67636C4.80727 2.66909 5.30036 2.66182 5.71782 2.48873C6.15418 2.30836 6.51782 1.95709 6.87491 1.616C7.25527 1.25164 7.65018 0.872727 8 0.872727C8.34982 0.872727 8.74473 1.25164 9.12727 1.61745C9.48073 1.95709 9.84727 2.30836 10.2836 2.49018C10.7011 2.66327 11.1942 2.67055 11.6713 2.67782C12.2124 2.68582 12.7724 2.69455 13.04 2.96145C13.3076 3.22836 13.3156 3.78909 13.3236 4.33018C13.3309 4.80727 13.3382 5.30036 13.5113 5.71782C13.6916 6.15418 14.0429 6.51782 14.384 6.87491C14.7476 7.25673 15.1287 7.65164 15.1287 8.00145C15.1287 8.35127 14.7484 8.74473 14.3825 9.12727ZM11.2175 5.94618C11.2992 6.028 11.3451 6.13891 11.3451 6.25455C11.3451 6.37018 11.2992 6.48109 11.2175 6.56291L7.14473 10.6356C7.06291 10.7174 6.952 10.7633 6.83636 10.7633C6.72073 10.7633 6.60982 10.7174 6.528 10.6356L4.78255 8.89018C4.70547 8.80746 4.6635 8.69805 4.6655 8.585C4.66749 8.47196 4.71329 8.3641 4.79324 8.28415C4.87319 8.2042 4.98105 8.1584 5.0941 8.15641C5.20714 8.15441 5.31655 8.19637 5.39927 8.27345L6.83636 9.70982L10.6007 5.94618C10.6825 5.86447 10.7935 5.81857 10.9091 5.81857C11.0247 5.81857 11.1356 5.86447 11.2175 5.94618Z" fill="#005AC1"/>
</svg>
