<svg width="80" height="80" viewBox="0 0 80 80" fill="none" xmlns="http://www.w3.org/2000/svg">
<rect width="80" height="80" rx="18" fill="url(#paint0_linear_1067_37410)"/>
<path fill-rule="evenodd" clip-rule="evenodd" d="M55.3878 39.2616H50.9636C49.5603 39.2616 48.5652 38.0957 48.7591 36.6685L49.0143 34.769C49.2082 33.3418 50.5145 32.1709 51.9178 32.1709H50.8666C49.499 32.1759 48.1621 32.6031 47.0343 33.3971C45.9066 34.1911 45.0442 35.3117 44.5543 36.6133C44.5339 40.3018 47.5344 43.508 51.331 43.508H56.2553L56.8268 39.2666L55.3878 39.2616ZM57.383 43.503H58.5414L59.1129 39.2616H57.9495L57.383 43.503Z" fill="#002E69" fill-opacity="0.8"/>
<path fill-rule="evenodd" clip-rule="evenodd" d="M60.3426 30.4173C61.0928 29.7338 61.6847 28.8896 62.0725 27.9448H51.5503C49.9225 27.9498 48.3559 28.5479 47.1261 29.6283C45.8963 30.7087 45.0951 32.2063 44.8655 33.8395L44.6103 35.7391C44.5746 36.0255 44.5593 36.3222 44.5542 36.6137C45.0441 35.3121 45.9014 34.1913 47.0291 33.3973C48.1569 32.6083 49.4938 32.1812 50.8614 32.1761H55.8265C57.4952 32.1761 59.1026 31.548 60.3426 30.4173Z" fill="#002E69" fill-opacity="0.8"/>
<path fill-rule="evenodd" clip-rule="evenodd" d="M27.7195 42.5249H27.7297L28.428 37.3344L29.4066 30.0415H23.372L21.6952 42.5249L21.4353 44.4563H21.4557L21.3079 45.5578C22.6636 44.8335 24.1773 44.4513 25.7114 44.4513H27.48L27.6941 42.8418H27.6737L27.7195 42.5249ZM30.1965 36.0317H34.8397C36.8223 36.0317 38.2239 37.6814 37.9487 39.7033L37.5868 42.3942C37.3167 44.4161 35.4716 46.0658 33.4941 46.0658H34.9773C36.914 46.0607 38.7998 45.4572 40.39 44.3406C41.9802 43.219 43.2034 41.6347 43.8914 39.7939C43.922 34.5782 39.6917 30.0465 34.3198 30.0465H31.0018L30.1965 36.0317Z" fill="#002E69" fill-opacity="0.8"/>
<path fill-rule="evenodd" clip-rule="evenodd" d="M19.1073 48.5606C18.0472 49.5262 17.2165 50.7233 16.666 52.0561H34.0051C36.2986 52.0511 38.5106 51.2011 40.2434 49.6721C41.9763 48.1381 43.1027 46.0257 43.4289 43.712L43.7908 41.0212C43.8468 40.6138 43.8878 40.2059 43.8929 39.7935C43.2048 41.6343 41.9712 43.2191 40.376 44.3407C38.7858 45.4623 36.9 46.0609 34.9632 46.0659H25.4681C23.1185 46.0709 20.8504 46.9612 19.1073 48.5606Z" fill="#002E69" fill-opacity="0.8"/>
<path d="M47.5952 52.0553H47.0794V48.2356C47.0794 48.1817 47.0978 48.0238 47.1345 47.7615L46.1271 51.4887H46.0169L45.0095 47.7615C45.0462 48.0263 45.0645 48.1842 45.0645 48.2356V52.0553H44.5488V46.0228H45.0564L46.0562 49.9469C46.0613 49.9673 46.0669 50.0253 46.072 50.1202C46.072 50.0817 46.0771 50.0238 46.0878 49.9469L47.0876 46.0228H47.5952V52.0553Z" fill="#002E69" fill-opacity="0.8"/>
<path d="M51.0623 52.0553H50.5191L50.3028 50.7138H49.079L48.8628 52.0553H48.3353V52.0398L49.4331 46.0073H49.9722L51.0623 52.0553ZM50.2319 50.2396L49.6927 46.9711L49.1494 50.2396H50.2319Z" fill="#002E69" fill-opacity="0.8"/>
<path d="M54.4234 52.0553H53.849L52.7038 48.8252L52.7788 48.7173H53.7546V46.497H52.3498V52.0553H51.803V46.0228H53.8653C53.9939 46.0228 54.099 46.0628 54.1801 46.1422C54.2612 46.2217 54.302 46.3246 54.302 46.4505V48.7403C54.302 49.0305 54.1025 49.1759 53.7036 49.1759C53.6644 49.1759 53.6067 49.1739 53.5307 49.1699C53.4547 49.1659 53.3996 49.1639 53.3654 49.1639C53.7194 50.1252 54.0724 51.0885 54.4239 52.0548L54.4234 52.0553Z" fill="#002E69" fill-opacity="0.8"/>
<path d="M57.8115 52.0553H57.2096L55.7889 49.1564V52.0553H55.2421V46.0228H55.7889V48.7328L57.0795 46.0228H57.6738V46.0573L56.2807 48.9291L57.8115 52.0553Z" fill="#002E69" fill-opacity="0.8"/>
<path d="M60.3656 52.0553H58.343V46.0228H60.3421V46.497H58.8898V48.7478H60.212V49.2294H58.8898V51.5806H60.3656V52.0553Z" fill="#002E69" fill-opacity="0.8"/>
<path d="M62.3886 46.497V52.0553H61.8418V46.497H60.8818V46.0228H63.3415V46.497H62.3886Z" fill="#002E69" fill-opacity="0.8"/>
<defs>
<linearGradient id="paint0_linear_1067_37410" x1="13.3333" y1="8.33333" x2="60" y2="65.8333" gradientUnits="userSpaceOnUse">
<stop stop-color="#EAF0FF"/>
<stop offset="0.558511" stop-color="#FAFBFF"/>
<stop offset="1" stop-color="#EEF3FF"/>
</linearGradient>
</defs>
</svg>
