<svg width="80" height="80" viewBox="0 0 80 80" fill="none" xmlns="http://www.w3.org/2000/svg">
<rect width="80" height="80" rx="18" fill="url(#paint0_linear_1253_6455)"/>
<path d="M57.2942 42.1276H39.4049C38.4463 42.0538 37.4972 42.3604 36.763 42.9811C36.0288 43.6018 35.5685 44.4866 35.4819 45.4442L35.4804 45.4575C35.5683 46.4277 36.0378 47.3232 36.7857 47.9473C37.5335 48.5714 38.4986 48.8731 39.4688 48.786L39.4554 48.7874H57.2942C57.4065 48.7978 57.5197 48.7857 57.6273 48.7517C57.7348 48.7178 57.8345 48.6627 57.9204 48.5898C58.0064 48.5168 58.077 48.4274 58.128 48.3268C58.1789 48.2262 58.2093 48.1165 58.2174 48.004V42.914C58.1882 42.6965 58.0812 42.4969 57.916 42.3523C57.7509 42.2077 57.539 42.1278 57.3195 42.1276H57.2927H57.2942ZM39.4049 47.5358C38.9845 47.5358 38.5735 47.4111 38.2239 47.1775C37.8743 46.9439 37.6018 46.6119 37.4409 46.2235C37.28 45.835 37.2379 45.4076 37.32 44.9952C37.402 44.5829 37.6044 44.2041 37.9017 43.9068C38.199 43.6095 38.5778 43.4071 38.9902 43.325C39.4025 43.243 39.83 43.2851 40.2184 43.446C40.6068 43.6069 40.9388 43.8794 41.1724 44.2289C41.406 44.5785 41.5307 44.9895 41.5307 45.41V45.4159C41.5307 46.5873 40.5808 47.5358 39.4108 47.5358H39.4049ZM27.1155 22.1631V31.683H29.1491V27.6158C29.3542 27.6663 29.5921 27.699 29.8359 27.708H29.8418C30.5767 27.706 31.2809 27.4133 31.8006 26.8939C32.3204 26.3744 32.6134 25.6704 32.6158 24.9355C32.6108 24.6942 32.5779 24.4542 32.5177 24.2205L32.5221 24.2428H43.6594C43.6058 24.4681 43.5749 24.6981 43.5673 24.9296V24.9355C43.5692 25.6704 43.8619 26.3746 44.3814 26.8943C44.9009 27.414 45.6049 27.7071 46.3397 27.7095C46.5895 27.7005 46.8288 27.6678 47.0577 27.6113L47.0339 27.6158V31.683H49.1166V22.1631H27.1155ZM49.9922 30.5265H52.5803C52.3864 29.9633 52.0467 29.4615 51.5957 29.0724C51.1447 28.6833 50.5986 28.4208 50.013 28.3115L49.9922 28.3085V30.5265Z" fill="#325787"/>
<path d="M39.2694 41.0179H57.016V35.6112C56.9401 34.8092 56.552 34.0692 55.9355 33.5506C55.3191 33.032 54.5235 32.7763 53.7203 32.8388H53.7307H25.5455C25.5215 32.8126 25.4886 32.7962 25.4533 32.7927C25.2579 32.7009 25.0906 32.5585 24.9688 32.3802C24.847 32.2019 24.7751 31.9943 24.7606 31.7789V31.7759C24.7842 31.5085 24.889 31.2548 25.0609 31.0486C25.2328 30.8424 25.4636 30.6937 25.7224 30.6223L25.7313 30.6209V28.2646C23.7883 28.3568 22.217 31.1293 22.217 34.5959V55.0689C22.2937 55.8699 22.6816 56.6089 23.2973 57.1271C23.913 57.6452 24.7074 57.9011 25.5098 57.8398H25.4994H53.6846C54.4836 57.8988 55.2739 57.6431 55.8869 57.1273C56.4999 56.6115 56.8869 55.8765 56.9655 55.0793L56.967 55.0674V49.6608H39.3185C36.4539 49.6608 34.1423 47.7193 34.1423 45.3631C34.1423 42.9608 36.4524 41.0194 39.2709 41.0194L39.2694 41.0179Z" fill="#325787"/>
<defs>
<linearGradient id="paint0_linear_1253_6455" x1="13.3333" y1="8.33333" x2="60" y2="65.8333" gradientUnits="userSpaceOnUse">
<stop stop-color="#EAF0FF"/>
<stop offset="0.558511" stop-color="#FAFBFF"/>
<stop offset="1" stop-color="#EEF3FF"/>
</linearGradient>
</defs>
</svg>
